<svg width="54" height="54" viewBox="0 0 54 54" fill="none" xmlns="http://www.w3.org/2000/svg">
<g filter="url(#filter0_dd_8005_4206)">
<path d="M3 26C3 12.7452 13.7452 2 27 2C40.2548 2 51 12.7452 51 26C51 39.2548 40.2548 50 27 50C13.7452 50 3 39.2548 3 26Z" fill="white"/>
<path d="M27 18C22.5817 18 19 21.5817 19 26H22C23.1046 26 24 26.8954 24 28V33C24 34.1046 23.1046 35 22 35H19C17.8954 35 17 34.1046 17 33V26C17 20.4771 21.4771 16 27 16C32.5228 16 37 20.4771 37 26V33C37 34.1046 36.1046 35 35 35H32C30.8954 35 30 34.1046 30 33V28C30 26.8954 30.8954 26 32 26H35C35 21.5817 31.4183 18 27 18ZM19 28V33H22V28H19ZM32 28V33H35V28H32Z" fill="#4338CA"/>
</g>
<defs>
<filter id="filter0_dd_8005_4206" x="0" y="0" width="54" height="54" filterUnits="userSpaceOnUse" color-interpolation-filters="sRGB">
<feFlood flood-opacity="0" result="BackgroundImageFix"/>
<feColorMatrix in="SourceAlpha" type="matrix" values="0 0 0 0 0 0 0 0 0 0 0 0 0 0 0 0 0 0 127 0" result="hardAlpha"/>
<feOffset dy="1"/>
<feGaussianBlur stdDeviation="1"/>
<feColorMatrix type="matrix" values="0 0 0 0 0 0 0 0 0 0 0 0 0 0 0 0 0 0 0.06 0"/>
<feBlend mode="normal" in2="BackgroundImageFix" result="effect1_dropShadow_8005_4206"/>
<feColorMatrix in="SourceAlpha" type="matrix" values="0 0 0 0 0 0 0 0 0 0 0 0 0 0 0 0 0 0 127 0" result="hardAlpha"/>
<feOffset dy="1"/>
<feGaussianBlur stdDeviation="1.5"/>
<feColorMatrix type="matrix" values="0 0 0 0 0 0 0 0 0 0 0 0 0 0 0 0 0 0 0.1 0"/>
<feBlend mode="normal" in2="effect1_dropShadow_8005_4206" result="effect2_dropShadow_8005_4206"/>
<feBlend mode="normal" in="SourceGraphic" in2="effect2_dropShadow_8005_4206" result="shape"/>
</filter>
</defs>
</svg>
